<svg width="30" height="30" viewBox="0 0 30 30" fill="none" xmlns="http://www.w3.org/2000/svg">
<path d="M20.8227 11.608C22.6225 12.7328 23.5222 13.2951 23.8309 14.0153C24.1004 14.644 24.1004 15.3559 23.8309 15.9848C23.5222 16.7048 22.6225 17.2671 20.8227 18.392L12.37 23.675C10.3726 24.9234 9.37384 25.5476 8.54966 25.4813C7.83126 25.4235 7.17273 25.0586 6.743 24.48C6.25 23.8163 6.25 22.6385 6.25 20.283V9.71697C6.25 7.36149 6.25 6.18377 6.743 5.51998C7.17273 4.94138 7.83126 4.57639 8.54966 4.51863C9.37384 4.45238 10.3726 5.07658 12.37 6.32498L20.8227 11.608Z" stroke="#1FC06D" stroke-width="3" stroke-linejoin="round"/>
<path d="M7.875 25.5L6.375 23.25L6.75 6L8.625 4.5L24 14.25L23.25 16.875L7.875 25.5Z" fill="#1FC06D" stroke="#1FC06D"/>
</svg>
